# xmcd
# Track frame offsets:
# 150
# 12332
# 21982
# 35445
# 56610
# 70372
# 83197
# 98187
# 111440
# 125520
#
# Disc length: 1821 seconds
# Revision: 0
# Processed by: cddbd v1.5.2PL0 Copyright (c) Steve Scherf et al.
# Submitted via: VisiTrax 2.9.5.180 - For more info visit www.synapsa.com
#
DISCID=87071b0a
DTITLE=Waylæon Jennings - Lassoes and spurs
DYEAR=1992
DGENRE=Country
TTITLE0=Clyde
TTITLE1=Theme from the Duke of Hazzard
TTITLE2=Don't you think this outlaw Hit's done got out of hand
TTITLE3=I ain't living long like this
TTITLE4=Come with me
TTITLE5=Shine
TTITLE6=Women do know how to carry on
TTITLE7=Are you sure Hank done it this way
TTITLE8=Waltz me to heaven
TTITLE9=Let's turn back the years
EXTD=
EXTT0=
EXTT1=
EXTT2=
EXTT3=
EXTT4=
EXTT5=
EXTT6=
EXTT7=
EXTT8=
EXTT9=
PLAYORDER=
